<?xml version="1.0" encoding="UTF-8"?>
<svg id="Camada_1" data-name="Camada 1" xmlns="http://www.w3.org/2000/svg" xmlns:xlink="http://www.w3.org/1999/xlink" viewBox="0 0 1920 865.29">
  <defs>
    <style>
      .cls-1 {
        fill: url(#Gradiente_sem_nome_3);
      }

      .cls-1, .cls-2 {
        stroke-width: 0px;
      }

      .cls-2 {
        fill: #212529;
      }
    </style>
    <linearGradient id="Gradiente_sem_nome_3" data-name="Gradiente sem nome 3" x1="383.37" y1="463.28" x2="671.87" y2="326.45" gradientUnits="userSpaceOnUse">
      <stop offset="0" stop-color="#007aff"/>
      <stop offset="1" stop-color="#8f79ff"/>
    </linearGradient>
  </defs>
  <path class="cls-1" d="M584.82,303.59h-162.08c-27.56,0-53.86,22.29-58.82,49.83-.01.07-.03.13-.04.2-.01.06-.03.13-.03.19l-2.05,11.66h0l-24.4,138.38-2.02,11.49s-.02.08-.02.11l-.07.36s-.01.07-.01.1c-4.7,27.5,13.72,49.75,41.26,49.75,1.81,0,3.62-.09,5.41-.29.11-.01.21-.03.32-.04,3.28-.46,6.25-3,7.27-6.2l.36-2.04h0s5.22-29.61,5.22-29.61h150.23c27.51,0,53.75-22.2,58.79-49.66.02-.08.03-.16.04-.24.01-.04.02-.08.03-.13.01-.08.03-.16.04-.24.01-.06.03-.11.03-.17l2.02-11.45,17.66-100.13,2.09-11.85c4.87-27.63-13.58-50.03-41.21-50.03ZM558.7,384.45l-3.14,17.78-4.69,26.6-3.09,17.55c-.01.08-.03.16-.04.23-.01.06-.02.11-.03.16-1.9,10.33-11.72,18.69-22.06,18.81-.08,0-.16,0-.24,0h-69.72c-11.55.09-22.86,4.09-32.44,10.73-13.16,9.12-23.07,23.22-25.94,39.06l8.53-48.37s-.04-.01-.07-.01l.25-1.41h0s11.17-63.36,11.17-63.36c.06,0,.11-.02.16-.04l3.13-17.75c1.85-10.48,11.84-18.98,22.33-18.98h100.25c10.48,0,17.48,8.5,15.64,18.98Z"/>
  <path class="cls-2" d="M843.82,413.43c0,39.98-27.68,65.53-63.4,65.53-15.85,0-28.86-4.97-38.32-15.38v59.38h-36.9v-173.16h35.25v14.66c9.22-11.12,22.94-16.56,39.98-16.56,35.72,0,63.4,25.55,63.4,65.53ZM806.44,413.43c0-22-13.96-35.25-32.41-35.25s-32.41,13.25-32.41,35.25,13.96,35.25,32.41,35.25,32.41-13.25,32.41-35.25Z"/>
  <path class="cls-2" d="M992.92,349.8v127.27h-35.01v-15.14c-9.7,11.12-23.89,17.03-39.51,17.03-31.94,0-54.41-17.98-54.41-57.25v-71.91h36.9v66.47c0,21.29,9.46,30.75,25.78,30.75s29.33-10.88,29.33-34.3v-62.92h36.9Z"/>
  <path class="cls-2" d="M1012.69,465.24l12.3-26.49c11.35,7.33,28.62,12.3,44.23,12.3,17.03,0,23.42-4.49,23.42-11.59,0-20.82-76.88.47-76.88-50.39,0-24.13,21.76-41.16,58.9-41.16,17.5,0,36.9,4.02,48.97,11.12l-12.3,26.26c-12.54-7.1-25.07-9.46-36.67-9.46-16.56,0-23.65,5.2-23.65,11.83,0,21.76,76.88.71,76.88,50.86,0,23.66-22,40.45-60.08,40.45-21.53,0-43.29-5.91-55.12-13.72Z"/>
  <path class="cls-2" d="M1277.97,404.21v72.86h-36.9v-67.18c0-20.58-9.46-30.04-25.79-30.04-17.74,0-30.52,10.88-30.52,34.3v62.92h-36.9v-175.53h36.9v61.51c9.93-9.94,24.13-15.14,40.45-15.14,30.04,0,52.75,17.5,52.75,56.3Z"/>
  <path class="cls-2" d="M1342.6,352.64h32.64v28.39h-31.7v96.04h-36.9v-130.11c0-28.62,17.5-47.31,49.2-47.31,10.65,0,21.29,2.13,28.15,6.86l-9.7,26.73c-4.02-2.84-9.23-4.49-14.9-4.49-10.88,0-16.8,5.91-16.8,18.45v5.44Z"/>
  <path class="cls-2" d="M1519.13,349.8v105.98c0,47.31-24.84,69.07-69.31,69.07-23.42,0-46.13-5.91-60.8-17.5l14.66-26.49c10.65,8.75,27.21,14.19,43.05,14.19,24.84,0,35.48-11.59,35.48-34.54v-4.26c-9.7,9.7-22.95,14.67-37.61,14.67-31.94,0-54.41-17.74-54.41-57.25v-63.87h36.9v58.43c0,21.53,9.46,30.99,25.78,30.99s29.33-10.88,29.33-34.3v-55.12h36.9Z"/>
  <path class="cls-2" d="M1558.28,310.59c4.58,0,8.96,1.14,13.17,3.43,4.2,2.29,7.5,5.57,9.91,9.84,2.4,4.27,3.6,8.74,3.6,13.41s-1.18,9.08-3.53,13.29c-2.36,4.22-5.64,7.5-9.86,9.86-4.22,2.36-8.64,3.54-13.29,3.54s-9.08-1.18-13.29-3.54c-4.22-2.35-7.5-5.64-9.86-9.86-2.36-4.21-3.54-8.64-3.54-13.29s1.2-9.14,3.61-13.41c2.4-4.28,5.7-7.56,9.91-9.84,4.2-2.28,8.59-3.43,13.17-3.43ZM1558.31,315.82c-3.67,0-7.19.92-10.56,2.75-3.37,1.83-6.02,4.47-7.96,7.91-1.94,3.44-2.91,7.04-2.91,10.8s.95,7.3,2.84,10.69,4.54,6.04,7.93,7.94c3.39,1.9,6.94,2.85,10.66,2.85s7.3-.95,10.68-2.85c3.38-1.9,6.02-4.55,7.92-7.94,1.9-3.39,2.86-6.95,2.86-10.69s-.97-7.36-2.91-10.8c-1.94-3.44-4.6-6.07-7.98-7.91-3.38-1.83-6.9-2.75-10.57-2.75ZM1546.23,351.56v-28.32h5.74c5.39,0,8.41.02,9.06.07,1.9.17,3.39.54,4.44,1.13,1.06.59,1.94,1.5,2.65,2.71.7,1.22,1.06,2.58,1.06,4.06,0,2.05-.67,3.79-2,5.24-1.34,1.45-3.21,2.35-5.63,2.7.86.32,1.52.68,1.99,1.06.46.38,1.1,1.11,1.91,2.18.21.28.91,1.43,2.09,3.45l3.34,5.71h-7.11l-2.37-4.6c-1.6-3.09-2.93-5.03-3.97-5.83-1.05-.8-2.37-1.2-3.97-1.2h-1.5v11.64h-5.74ZM1551.97,335.46h2.33c3.32,0,5.38-.13,6.18-.38.8-.25,1.43-.7,1.9-1.34.46-.64.69-1.37.69-2.18s-.23-1.49-.68-2.11c-.45-.62-1.1-1.06-1.93-1.32-.83-.27-2.89-.4-6.17-.4h-2.33v7.74Z"/>
</svg>